<?xml version="1.0" encoding="UTF-8"?>
<svg version="1.1" xmlns="http://www.w3.org/2000/svg" width="423" height="119">
<path d="M0 0 C139.59 0 279.18 0 423 0 C423 39.27 423 78.54 423 119 C283.41 119 143.82 119 0 119 C0 79.73 0 40.46 0 0 Z " fill="#FCFDFD" transform="translate(0,0)"/>
<path d="M0 0 C139.59 0 279.18 0 423 0 C423 3.63 423 7.26 423 11 C283.41 11 143.82 11 0 11 C0 7.37 0 3.74 0 0 Z " fill="#84908D" transform="translate(0,108)"/>
<path d="M0 0 C7.4201912 -0.06896563 14.83926486 -0.12867373 22.25952148 -0.16479492 C24.78234633 -0.17985705 27.3051451 -0.20031077 29.82788086 -0.22631836 C33.45953824 -0.26281383 37.09084858 -0.2797526 40.72265625 -0.29296875 C41.84583755 -0.30845261 42.96901886 -0.32393646 44.12623596 -0.33988953 C51.71660037 -0.34151122 56.78515449 0.29660718 62.75 5.3125 C69.60825001 13.50429863 69.76998124 22.72625028 69 33 C67.64077745 39.59959863 65.37931928 44.53507278 60.171875 48.87890625 C53.2331357 52.46059362 45.88967196 52.2702636 38.28125 52.1953125 C37.30639648 52.19329834 36.33154297 52.19128418 35.32714844 52.18920898 C31.71805045 52.17881865 28.10902003 52.15089658 24.5 52.125 C16.415 52.08375 8.33 52.0425 0 52 C0 34.84 0 17.68 0 0 Z " fill="#FDFDFD" transform="translate(239,33)"/>
<path d="M0 0 C10.35375 -0.061875 20.7075 -0.12375 31.375 -0.1875 C34.62520996 -0.21481201 37.87541992 -0.24212402 41.22412109 -0.27026367 C43.82388946 -0.27903226 46.42366197 -0.28667532 49.0234375 -0.29296875 C50.01677597 -0.30472893 50.01677597 -0.30472893 51.03018188 -0.31672668 C62.59018915 -0.44655668 72.69845043 0.30385529 81.5546875 8.42578125 C89.37779785 16.57971965 90.35615405 25.69329594 90.4375 36.5625 C90.44765137 37.531875 90.45780273 38.50125 90.46826172 39.5 C90.35471516 48.92916235 88.61552437 57.5638774 82.26348877 64.79916382 C74.8755492 71.98260777 66.2144475 73.75945036 56.21630859 73.67895508 C54.7952298 73.64876632 53.37416796 73.61776837 51.953125 73.5859375 C50.61508696 73.57708777 49.27702794 73.57098401 47.93896484 73.56762695 C43.04232121 73.53649352 38.14612568 73.4527272 33.25 73.375 C16.79125 73.189375 16.79125 73.189375 0 73 C0 48.91 0 24.82 0 0 Z M11 11 C11 28.16 11 45.32 11 63 C19.04375 63.061875 27.0875 63.12375 35.375 63.1875 C37.89431152 63.21481201 40.41362305 63.24212402 43.00927734 63.27026367 C45.03482587 63.27903604 47.06037974 63.2866782 49.0859375 63.29296875 C50.11436768 63.30831665 51.14279785 63.32366455 52.20239258 63.33947754 C59.26537655 63.34200304 67.19010386 63.08839907 72.91195679 58.45011902 C78.79380598 52.37712649 80.16118471 45.27657071 80.375 37.0625 C80.18037332 28.87048599 79.12062809 20.94060962 73 15 C68.23944291 11.66761003 64.41887392 10.8728122 58.68066406 10.88647461 C57.08946747 10.88658791 57.08946747 10.88658791 55.46612549 10.88670349 C54.32746033 10.89186478 53.18879517 10.89702606 52.015625 10.90234375 C50.84489441 10.9037587 49.67416382 10.90517365 48.46795654 10.90663147 C44.72861171 10.9122291 40.98932674 10.9247812 37.25 10.9375 C34.71484461 10.9425153 32.17968829 10.94707816 29.64453125 10.95117188 C23.42964588 10.96134687 17.21488996 10.98092292 11 11 Z " fill="#044E2B" transform="translate(228,22)"/>
<path d="M0 0 C21.13649316 0 21.13649316 0 30.3125 8.6875 C36.65264835 15.22168848 41.99610795 22.61076154 47.42431641 29.8984375 C51.51005703 35.34777982 55.75033903 40.67811204 60 46 C60.45036621 46.56686523 60.90073242 47.13373047 61.36474609 47.71777344 C62.69238518 49.38195028 64.03149707 51.03611625 65.375 52.6875 C66.14585938 53.64011719 66.91671875 54.59273437 67.7109375 55.57421875 C71.19567086 59.26708465 74.086181 60.77154525 79 62 C79 51.44 79 40.88 79 30 C82.63 31.98 86.26 33.96 90 36 C90 48.21 90 60.42 90 73 C69.02896341 73 69.02896341 73 60.125 64.5625 C55.04572543 59.26576413 50.61436385 53.5474074 46.24560547 47.66894531 C42.98896283 43.30547823 39.63935943 39.0116035 36.31054688 34.703125 C34.92392842 32.90114096 33.5480989 31.09118157 32.171875 29.28125 C23.50370908 17.75128511 23.50370908 17.75128511 11 11 C11 31.79 11 52.58 11 74 C7.37 74 3.74 74 0 74 C0 49.58 0 25.16 0 0 Z " fill="#064F2C" transform="translate(0,22)"/>
<path d="M0 0 C8.64616422 3.81647093 13.50442925 11.93850633 17.2734375 20.2109375 C17.66391266 21.04002625 18.05438782 21.86911499 18.45669556 22.72332764 C19.69193155 25.35420307 20.90858109 27.99319317 22.125 30.6328125 C22.93110992 32.3547204 23.73839466 34.0760788 24.546875 35.796875 C28.69963778 44.66233305 32.76033557 53.56976224 36.7890625 62.4921875 C37.36459366 63.76488495 37.36459366 63.76488495 37.95175171 65.06329346 C38.30492462 65.84903748 38.65809753 66.63478149 39.02197266 67.44433594 C39.48780258 68.47950348 39.48780258 68.47950348 39.96304321 69.5355835 C40.63797233 71.11984918 41.20544265 72.74914045 41.75 74.3828125 C37.79 74.3828125 33.83 74.3828125 29.75 74.3828125 C27.08333333 69.04947917 24.41666667 63.71614583 21.75 58.3828125 C21.37987793 57.70444336 21.00975586 57.02607422 20.62841797 56.32714844 C19.75 54.3828125 19.75 54.3828125 19.75 51.3828125 C7.21 51.3828125 -5.33 51.3828125 -18.25 51.3828125 C-16.93 48.0828125 -15.61 44.7828125 -14.25 41.3828125 C-5.01 41.3828125 4.23 41.3828125 13.75 41.3828125 C11.15125 35.5975 11.15125 35.5975 8.5 29.6953125 C7.96213867 28.48786377 7.42427734 27.28041504 6.87011719 26.03637695 C6.43344727 25.0743335 5.99677734 24.11229004 5.546875 23.12109375 C5.10698242 22.14180908 4.66708984 21.16252441 4.21386719 20.15356445 C2.02848728 16.01716075 0.287441 12.89529283 -4.25 11.3828125 C-8.20381187 10.94350007 -10.37317874 10.71974368 -13.60546875 13.1640625 C-17.59358058 17.45211169 -19.74498261 23.00890247 -22.1875 28.2578125 C-22.73946045 29.42352783 -23.2914209 30.58924316 -23.86010742 31.7902832 C-30.52001129 45.89645465 -36.88736364 60.14080938 -43.25 74.3828125 C-47.54 74.3828125 -51.83 74.3828125 -56.25 74.3828125 C-50.76874591 61.9137608 -45.02797081 49.57050052 -39.20965576 37.25592041 C-38.40821457 35.559424 -37.60778636 33.86244865 -36.80841064 32.16497803 C-19.17375436 -5.25946734 -19.17375436 -5.25946734 0 0 Z " fill="#054F2B" transform="translate(381.25,21.6171875)"/>
<path d="M0 0 C68.97 0 137.94 0 209 0 C209 3.3 209 6.6 209 10 C140.03 10 71.06 10 0 10 C0 6.7 0 3.4 0 0 Z " fill="#004D29" transform="translate(214,108)"/>
<path d="M0 0 C20.79 0 41.58 0 63 0 C63 3.63 63 7.26 63 11 C50.79 11 38.58 11 26 11 C26 31.79 26 52.58 26 74 C22.37 74 18.74 74 15 74 C15 53.21 15 32.42 15 11 C9.39 11 3.78 11 -2 11 C-1 3 -1 3 0 0 Z " fill="#07502C" transform="translate(151,22)"/>
<path d="M0 0 C0 1.65 0 3.3 0 5 C1.32 4.01 2.64 3.02 4 2 C3.34 1.34 2.68 0.68 2 0 C3.32 0 4.64 0 6 0 C6 1.65 6 3.3 6 5 C6.66 5 7.32 5 8 5 C8 3.35 8 1.7 8 0 C9.890625 0.26953125 9.890625 0.26953125 12 1 C14.70678361 5.23187437 15.37057967 10.0589377 15 15 C10.25 13.125 10.25 13.125 8 12 C8.99 13.65 9.98 15.3 11 17 C10.34 17.33 9.68 17.66 9 18 C10.134375 18.268125 11.26875 18.53625 12.4375 18.8125 C13.613125 19.204375 14.78875 19.59625 16 20 C16.495 21.485 16.495 21.485 17 23 C15.68 23 14.36 23 13 23 C10.49668847 23.50066231 8.575448 24.20262709 6.25 25.3125 C1.59299551 26.29763556 -1.07318422 24.41190208 -5 22 C-4.21625 22.78375 -3.4325 23.5675 -2.625 24.375 C2.53922694 29.53922694 3.049597 33.17311036 3.0625 40.4375 C3.041875 41.613125 3.02125 42.78875 3 44 C3.66 44.33 4.32 44.66 5 45 C4.98839844 44.43152344 4.97679688 43.86304688 4.96484375 43.27734375 C4.84707766 33.19993137 4.84707766 33.19993137 6 29 C9.0625 26.5625 9.0625 26.5625 12 25 C13.33500455 30.34001821 12.512545 33.83955235 11 39 C11.68707031 39.04898438 12.37414062 39.09796875 13.08203125 39.1484375 C13.98308594 39.22320312 14.88414063 39.29796875 15.8125 39.375 C16.70582031 39.44460937 17.59914062 39.51421875 18.51953125 39.5859375 C21 40 21 40 24 42 C24.33 40.35 24.66 38.7 25 37 C25.33 37 25.66 37 26 37 C26.2493357 38.60115576 26.47378648 40.20620159 26.6875 41.8125 C26.87892578 43.15248047 26.87892578 43.15248047 27.07421875 44.51953125 C27 47 27 47 25.76953125 48.82421875 C24 50 24 50 20 50 C19.67 50.99 19.34 51.98 19 53 C15.60418484 53.0291544 12.20840214 53.04685068 8.8125 53.0625 C7.85279297 53.07087891 6.89308594 53.07925781 5.90429688 53.08789062 C4.97294922 53.09111328 4.04160156 53.09433594 3.08203125 53.09765625 C2.22843018 53.10289307 1.3748291 53.10812988 0.49536133 53.11352539 C-2 53 -2 53 -4.6418457 52.46655273 C-7.37815368 51.92518359 -9.32058175 52.31100674 -12 53 C-12.33 52.34 -12.66 51.68 -13 51 C-13.804375 50.71125 -14.60875 50.4225 -15.4375 50.125 C-18 49 -18 49 -19.3125 46.875 C-19.539375 46.25625 -19.76625 45.6375 -20 45 C-18.515 44.505 -18.515 44.505 -17 44 C-16.67 43.01 -16.34 42.02 -16 41 C-12.4375 39.8125 -12.4375 39.8125 -9 39 C-9.66 38.67 -10.32 38.34 -11 38 C-10.67 36.68 -10.34 35.36 -10 34 C-10.99 34 -11.98 34 -13 34 C-12.855625 33.46375 -12.71125 32.9275 -12.5625 32.375 C-11.90546252 29.60084173 -11.44780052 26.81474612 -11 24 C-9.68 24.66 -8.36 25.32 -7 26 C-7.66 26 -8.32 26 -9 26 C-8.67 26.556875 -8.34 27.11375 -8 27.6875 C-6.8690399 30.30284522 -6.84337026 32.1806646 -7 35 C-6.34 35.33 -5.68 35.66 -5 36 C-5.185625 35.0925 -5.37125 34.185 -5.5625 33.25 C-5.95734621 30.31685676 -5.94691572 28.7355343 -5 26 C-5.66 25.54625 -6.32 25.0925 -7 24.625 C-7.66 24.08875 -8.32 23.5525 -9 23 C-9 22.34 -9 21.68 -9 21 C-6.03 20.01 -3.06 19.02 0 18 C0 17.34 0 16.68 0 16 C0.66 16 1.32 16 2 16 C2 14.02 2 12.04 2 10 C1.071875 10.825 0.14375 11.65 -0.8125 12.5 C-3.625 15 -3.625 15 -7 15 C-6.74535902 12.8729989 -6.47077058 10.74837785 -6.1875 8.625 C-5.96126953 6.84996094 -5.96126953 6.84996094 -5.73046875 5.0390625 C-4.88549709 1.52361889 -3.83167362 0 0 0 Z " fill="#299747" transform="translate(106,1)"/>
<path d="M0 0 C33.99 0 67.98 0 103 0 C103 3.3 103 6.6 103 10 C69.01 10 35.02 10 0 10 C0 6.7 0 3.4 0 0 Z " fill="#004C28" transform="translate(1,108)"/>
<path d="M0 0 C0.66 1.65 1.32 3.3 2 5 C2.66 4.67 3.32 4.34 4 4 C4.99 3.896875 5.98 3.79375 7 3.6875 C10.11815733 3.33452489 10.11815733 3.33452489 11.375 0.9375 C11.684375 -0.0215625 11.684375 -0.0215625 12 -1 C12.66 -1 13.32 -1 14 -1 C14 0.98 14 2.96 14 5 C13.34 5 12.68 5 12 5 C12 5.66 12 6.32 12 7 C5.25 10 5.25 10 3 10 C4.20851292 11.20851292 5.43343304 12.40132689 6.6875 13.5625 C8.72693837 17.3500284 7.73063292 20.88028665 7 25 C6.01 24.67 5.02 24.34 4 24 C4.04125 23.21625 4.0825 22.4325 4.125 21.625 C4.28728734 18.83883881 4.28728734 18.83883881 2 17 C2.33 16.01 2.66 15.02 3 14 C2.34 13.67 1.68 13.34 1 13 C1.33 13.99 1.66 14.98 2 16 C1.07796291 18.36522558 0.08301035 20.70401807 -1 23 C-0.01 23 0.98 23 2 23 C1.67 24.32 1.34 25.64 1 27 C2.98 27 4.96 27 7 27 C4.4312405 28.43850532 2.18879696 29.21998727 -0.6875 30 C-1.780625 30.33 -2.87375 30.66 -4 31 C-4.33 31.66 -4.66 32.32 -5 33 C-5.66 33 -6.32 33 -7 33 C-7.125 26.375 -7.125 26.375 -6 23 C-7.65 23.33 -9.3 23.66 -11 24 C-11.33 23.34 -11.66 22.68 -12 22 C-13.32 22.33 -14.64 22.66 -16 23 C-15.21785366 20.20843706 -14.36996111 17.56193515 -13 15 C-10.4375 13.875 -10.4375 13.875 -8 14 C-7.34 14.66 -6.68 15.32 -6 16 C-5.66147173 13.01410534 -5.66147173 13.01410534 -7.4375 11.4375 C-7.953125 10.963125 -8.46875 10.48875 -9 10 C-10.39935013 7.20129973 -10.25265405 5.09501208 -10 2 C-7.64463991 -2.2950684 -4.23605512 -0.87918125 0 0 Z " fill="#F1F1EF" transform="translate(94,12)"/>
<path d="M0 0 C5.40432346 -0.48038431 5.40432346 -0.48038431 7.9375 1.5625 C9.42134164 4.96660729 8.75421541 7.43461808 8 11 C7.34 11 6.68 11 6 11 C4.39660152 14.11771927 3.81025859 15.39011689 4.875 18.8125 C5.431875 19.8953125 5.431875 19.8953125 6 21 C8.475 19.515 8.475 19.515 11 18 C13.1385485 20.1385485 13.42655063 21.13275314 14 24 C12.68 23.67 11.36 23.34 10 23 C9.67 23.66 9.34 24.32 9 25 C7.35 24.67 5.7 24.34 4 24 C4 27.3 4 30.6 4 34 C2.68 33.01 1.36 32.02 0 31 C-2.80883637 30.42770132 -2.80883637 30.42770132 -5.75 30.3125 C-7.22726563 30.21388672 -7.22726563 30.21388672 -8.734375 30.11328125 C-9.48203125 30.07589844 -10.2296875 30.03851563 -11 30 C-10.84402344 29.24074219 -10.68804687 28.48148438 -10.52734375 27.69921875 C-10.33269531 26.70535156 -10.13804688 25.71148437 -9.9375 24.6875 C-9.74027344 23.70136719 -9.54304688 22.71523438 -9.33984375 21.69921875 C-8.79077784 18.90723539 -8.79077784 18.90723539 -10 16 C-12.09178394 16.95821064 -12.09178394 16.95821064 -14 19 C-14.61600155 21.82140333 -15.01102227 24.33719271 -15.25 27.1875 C-15.32734375 27.93708984 -15.4046875 28.68667969 -15.484375 29.45898438 C-15.67244395 31.30441097 -15.83838576 33.1520687 -16 35 C-16.99 34.67 -17.98 34.34 -19 34 C-18.96519531 33.02160156 -18.96519531 33.02160156 -18.9296875 32.0234375 C-18.76364098 24.79620627 -18.76364098 24.79620627 -21 18 C-23.53442406 15.77183014 -23.53442406 15.77183014 -26 14 C-26 13.34 -26 12.68 -26 12 C-23.53302573 12.56930176 -21.40879472 13.25157672 -19.0625 14.25 C-18.051875 14.4975 -17.04125 14.745 -16 15 C-15.2575 14.525625 -14.515 14.05125 -13.75 13.5625 C-9.54100232 11.17102405 -5.64449661 12.25146948 -1 13 C-1.33 14.98 -1.66 16.96 -2 19 C-1.34 19.33 -0.68 19.66 0 20 C0 20.66 0 21.32 0 22 C0.66 22 1.32 22 2 22 C1.83242187 21.38511719 1.66484375 20.77023438 1.4921875 20.13671875 C1.28851563 19.32847656 1.08484375 18.52023438 0.875 17.6875 C0.66617188 16.88699219 0.45734375 16.08648438 0.2421875 15.26171875 C0 13 0 13 2 10 C1.34 9.67 0.68 9.34 0 9 C0.33 8.34 0.66 7.68 1 7 C0.34 6.34 -0.32 5.68 -1 5 C0.65 4.67 2.3 4.34 4 4 C4 3.34 4 2.68 4 2 C2.35 2.33 0.7 2.66 -1 3 C-0.67 2.01 -0.34 1.02 0 0 Z " fill="#C2BFA6" transform="translate(127,11)"/>
<path d="M0 0 C3.63 0 7.26 0 11 0 C11 11.22 11 22.44 11 34 C7.37 34 3.74 34 0 34 C0 22.78 0 11.56 0 0 Z " fill="#034F2C" transform="translate(104,62)"/>
<path d="M0 0 C0 1.65 0 3.3 0 5 C1.32 4.01 2.64 3.02 4 2 C3.34 1.34 2.68 0.68 2 0 C3.32 0 4.64 0 6 0 C6 1.65 6 3.3 6 5 C6.66 5 7.32 5 8 5 C8 3.35 8 1.7 8 0 C9.890625 0.26953125 9.890625 0.26953125 12 1 C14.70678361 5.23187437 15.37057967 10.0589377 15 15 C10.25 13.125 10.25 13.125 8 12 C8.99 13.65 9.98 15.3 11 17 C9.35 17.33 7.7 17.66 6 18 C6 18.66 6 19.32 6 20 C5.01 20 4.02 20 3 20 C3 19.34 3 18.68 3 18 C2.34 18 1.68 18 1 18 C1 18.66 1 19.32 1 20 C0.01 19.67 -0.98 19.34 -2 19 C-1.34 18.67 -0.68 18.34 0 18 C0 17.34 0 16.68 0 16 C0.66 16 1.32 16 2 16 C2 14.02 2 12.04 2 10 C0.6078125 11.2375 0.6078125 11.2375 -0.8125 12.5 C-3.625 15 -3.625 15 -7 15 C-6.74535902 12.8729989 -6.47077058 10.74837785 -6.1875 8.625 C-6.03667969 7.44164062 -5.88585937 6.25828125 -5.73046875 5.0390625 C-4.88549709 1.52361889 -3.83167362 0 0 0 Z " fill="#4A221A" transform="translate(106,1)"/>
<path d="M0 0 C0 0.99 0 1.98 0 3 C0.85368164 2.75660889 0.85368164 2.75660889 1.72460938 2.50830078 C4.03087166 1.99310356 6.0468978 1.87073769 8.40625 1.8671875 C9.64568359 1.86525391 9.64568359 1.86525391 10.91015625 1.86328125 C11.76480469 1.86714844 12.61945313 1.87101562 13.5 1.875 C14.35464844 1.87113281 15.20929688 1.86726563 16.08984375 1.86328125 C16.91613281 1.86457031 17.74242188 1.86585937 18.59375 1.8671875 C19.34333984 1.86831543 20.09292969 1.86944336 20.86523438 1.87060547 C23.02346905 2.00142253 24.92475391 2.40833159 27 3 C27 2.01 27 1.02 27 0 C29.76276177 0.52268466 32.3260876 1.10869587 35 2 C34.67 2.99 34.34 3.98 34 5 C32.68 5 31.36 5 30 5 C29.67 5.99 29.34 6.98 29 8 C25.60418484 8.0291544 22.20840214 8.04685068 18.8125 8.0625 C17.85279297 8.07087891 16.89308594 8.07925781 15.90429688 8.08789062 C14.97294922 8.09111328 14.04160156 8.09433594 13.08203125 8.09765625 C12.22843018 8.10289307 11.3748291 8.10812988 10.49536133 8.11352539 C8 8 8 8 5.3581543 7.46655273 C2.62184632 6.92518359 0.67941825 7.31100674 -2 8 C-2.33 7.34 -2.66 6.68 -3 6 C-3.825 5.690625 -4.65 5.38125 -5.5 5.0625 C-6.325 4.711875 -7.15 4.36125 -8 4 C-8.33 3.01 -8.66 2.02 -9 1 C-5.94152152 0.45627049 -3.11227195 0 0 0 Z " fill="#BC8325" transform="translate(96,46)"/>
<path d="M0 0 C0.66 1.65 1.32 3.3 2 5 C1.01 5.66 0.02 6.32 -1 7 C-1 6.34 -1 5.68 -1 5 C-1.99 5.33 -2.98 5.66 -4 6 C-3.01 7.485 -3.01 7.485 -2 9 C-2.66 9 -3.32 9 -4 9 C-4 9.66 -4 10.32 -4 11 C-3.34 11 -2.68 11 -2 11 C-2.11455681 12.91731918 -2.24206258 14.8338675 -2.375 16.75 C-2.44460937 17.81734375 -2.51421875 18.8846875 -2.5859375 19.984375 C-2.97872194 22.84503146 -3.66324481 24.49897416 -5 27 C-5.16724737 30.16695956 -5.16724737 30.16695956 -5 33 C-5.66 33 -6.32 33 -7 33 C-7.125 26.375 -7.125 26.375 -6 23 C-7.65 23.33 -9.3 23.66 -11 24 C-11.33 23.34 -11.66 22.68 -12 22 C-13.32 22.33 -14.64 22.66 -16 23 C-15.21785366 20.20843706 -14.36996111 17.56193515 -13 15 C-10.4375 13.875 -10.4375 13.875 -8 14 C-7.34 14.66 -6.68 15.32 -6 16 C-5.66147173 13.01410534 -5.66147173 13.01410534 -7.4375 11.4375 C-7.953125 10.963125 -8.46875 10.48875 -9 10 C-10.39935013 7.20129973 -10.25265405 5.09501208 -10 2 C-7.64463991 -2.2950684 -4.23605512 -0.87918125 0 0 Z " fill="#DAD9D8" transform="translate(94,12)"/>
<path d="M0 0 C2.64 1.65 5.28 3.3 8 5 C8.33 4.34 8.66 3.68 9 3 C11.06640625 2.5859375 11.06640625 2.5859375 13.5625 2.375 C14.38878906 2.30023438 15.21507812 2.22546875 16.06640625 2.1484375 C17.02353516 2.07496094 17.02353516 2.07496094 18 2 C18 2.66 18 3.32 18 4 C17.01 4.66 16.02 5.32 15 6 C15.66 6.33 16.32 6.66 17 7 C16.34 7.66 15.68 8.32 15 9 C15 12.01853795 15.14950715 14.77081079 15.5 17.75 C15.5928125 18.54921875 15.685625 19.3484375 15.78125 20.171875 C15.8534375 20.77515625 15.925625 21.3784375 16 22 C14.68 21.67 13.36 21.34 12 21 C11.61866701 19.0085944 11.28674418 17.00720923 11 15 C11.33 14.67 11.66 14.34 12 14 C9.61830597 11.98472043 7.80735213 10.93578404 4.8125 9.9375 C3.884375 9.628125 2.95625 9.31875 2 9 C1.67 8.34 1.34 7.68 1 7 C1.66 6.67 2.32 6.34 3 6 C2.2575 5.071875 2.2575 5.071875 1.5 4.125 C0 2 0 2 0 0 Z " fill="#EEEDED" transform="translate(113,11)"/>
<path d="M0 0 C2.46697427 0.56930176 4.59120528 1.25157672 6.9375 2.25 C10.00544974 3.37913322 10.00544974 3.37913322 12.4375 1.5625 C13.283125 1.046875 14.12875 0.53125 15 0 C18.8125 0.3125 18.8125 0.3125 22 1 C22 1.66 22 2.32 22 3 C17.25 5 17.25 5 15 5 C14.01 5.66 13.02 6.32 12 7 C11.45498935 9.75711269 11.07450235 12.34152546 10.8125 15.125 C10.73064453 15.87910156 10.64878906 16.63320313 10.56445312 17.41015625 C10.3641103 19.27216607 10.18045964 21.13595811 10 23 C9.01 22.67 8.02 22.34 7 22 C7.02320312 21.34773438 7.04640625 20.69546875 7.0703125 20.0234375 C7.23635902 12.79620627 7.23635902 12.79620627 5 6 C2.46557594 3.77183014 2.46557594 3.77183014 0 2 C0 1.34 0 0.68 0 0 Z " fill="#E9E9E8" transform="translate(101,23)"/>
<path d="M0 0 C0.66 0 1.32 0 2 0 C1.67 1.65 1.34 3.3 1 5 C2.98 4.67 4.96 4.34 7 4 C7.433125 4.804375 7.86625 5.60875 8.3125 6.4375 C9.80474002 9.27846354 9.80474002 9.27846354 13 10 C14.6875 12.5625 14.6875 12.5625 16 15 C14.35 15.33 12.7 15.66 11 16 C11 16.66 11 17.32 11 18 C10.01 18 9.02 18 8 18 C8 17.34 8 16.68 8 16 C7.34 16 6.68 16 6 16 C6 16.66 6 17.32 6 18 C5.01 17.67 4.02 17.34 3 17 C3.66 16.67 4.32 16.34 5 16 C5 15.34 5 14.68 5 14 C5.66 14 6.32 14 7 14 C7 12.02 7 10.04 7 8 C5.6078125 9.2375 5.6078125 9.2375 4.1875 10.5 C1.375 13 1.375 13 -2 13 C-1.34 8.71 -0.68 4.42 0 0 Z " fill="#683626" transform="translate(101,3)"/>
<path d="M0 0 C0.66 0 1.32 0 2 0 C2 0.66 2 1.32 2 2 C2.99 2 3.98 2 5 2 C5 1.34 5 0.68 5 0 C8.63 0.66 12.26 1.32 16 2 C15.67 3.32 15.34 4.64 15 6 C14.113125 5.773125 13.22625 5.54625 12.3125 5.3125 C8.98106329 4.65994806 8.98106329 4.65994806 6.5 6.5625 C4 8 4 8 0.9375 7.3125 C-1.41175962 6.26283081 -3.73468822 5.21978327 -6 4 C-6.33 4.66 -6.66 5.32 -7 6 C-7.99 5.67 -8.98 5.34 -10 5 C-10 4.34 -10 3.68 -10 3 C-8.71073008 2.63720544 -7.41846728 2.28503302 -6.125 1.9375 C-5.40570313 1.74027344 -4.68640625 1.54304688 -3.9453125 1.33984375 C-2 1 -2 1 0 2 C0 1.34 0 0.68 0 0 Z " fill="#B9B6B0" transform="translate(107,19)"/>
<path d="M0 0 C0.66 1.65 1.32 3.3 2 5 C1.01 5.66 0.02 6.32 -1 7 C-1 6.34 -1 5.68 -1 5 C-1.99 5.33 -2.98 5.66 -4 6 C-3.01 7.485 -3.01 7.485 -2 9 C-2.66 9 -3.32 9 -4 9 C-4 10.98 -4 12.96 -4 15 C-9.89292088 9.25817965 -9.89292088 9.25817965 -10.25 5.0625 C-10 2 -10 2 -8.9375 0.0625 C-5.87530347 -1.61676907 -3.30629059 -0.68621125 0 0 Z " fill="#A8A598" transform="translate(94,12)"/>
<path d="M0 0 C0.99 0.33 1.98 0.66 3 1 C2.79375 1.70125 2.5875 2.4025 2.375 3.125 C1.92149643 6.60186072 2.72459723 8.77398123 4 12 C3.01 11.67 2.02 11.34 1 11 C1 12.32 1 13.64 1 15 C-1.64 15.66 -4.28 16.32 -7 17 C-6.71617054 15.24871182 -6.42260471 13.49899997 -6.125 11.75 C-5.96257812 10.77546875 -5.80015625 9.8009375 -5.6328125 8.796875 C-5.05144152 6.22735883 -4.29159735 4.27928944 -3 2 C-2.01 2 -1.02 2 0 2 C0 1.34 0 0.68 0 0 Z " fill="#9D9A8C" transform="translate(123,24)"/>
<path d="M0 0 C2.97841273 1.38283448 5.66802743 2.66802743 8 5 C9.22721269 9.90885075 8.90818613 14.0554311 8 19 C5 18 5 18 3.8671875 16.29296875 C3.53976563 15.59816406 3.21234375 14.90335938 2.875 14.1875 C2.54242188 13.50042969 2.20984375 12.81335937 1.8671875 12.10546875 C0.27217804 8.23290073 -0.07474316 6.03028683 1 2 C0.67 1.34 0.34 0.68 0 0 Z " fill="#14120C" transform="translate(100,25)"/>
<path d="M0 0 C1.86064029 3.10340758 2.22395864 4.84522502 1.4375 8.375 C0.27251709 13.01193854 -1.64143803 15.64143803 -5 19 C-5.33 19 -5.66 19 -6 19 C-6.18032787 8.72131148 -6.18032787 8.72131148 -5 4 C-2.4375 1.5625 -2.4375 1.5625 0 0 Z " fill="#16140E" transform="translate(117,26)"/>
<path d="M0 0 C5.40432346 -0.48038431 5.40432346 -0.48038431 7.9375 1.5625 C9.42134164 4.96660729 8.75421541 7.43461808 8 11 C7.34 11 6.68 11 6 11 C5.34 12.32 4.68 13.64 4 15 C3.17361624 12.10765685 3 10.11257569 3 7 C1.68 6.67 0.36 6.34 -1 6 C2 4 2 4 4 4 C4 3.34 4 2.68 4 2 C2.35 2.33 0.7 2.66 -1 3 C-0.67 2.01 -0.34 1.02 0 0 Z " fill="#A3A196" transform="translate(127,11)"/>
<path d="M0 0 C0.33 0.33 0.66 0.66 1 1 C1 0.67 1 0.34 1 0 C3.12563103 0.11376617 5.2505261 0.24135631 7.375 0.375 C9.15003906 0.47941406 9.15003906 0.47941406 10.9609375 0.5859375 C14 1 14 1 16 3 C14.88625 2.95875 13.7725 2.9175 12.625 2.875 C8.95633975 2.58878141 8.95633975 2.58878141 7 5 C1.99880319 5.68270306 -2.55461877 6.07563254 -6.6875 3 C-7.120625 2.34 -7.55375 1.68 -8 1 C-5.26752652 -0.36623674 -3.01801098 -0.128426 0 0 Z " fill="#607539" transform="translate(108,49)"/>
<path d="M0 0 C0.66 0 1.32 0 2 0 C2 1.65 2 3.3 2 5 C3.32 4.01 4.64 3.02 6 2 C5.34 1.34 4.68 0.68 4 0 C5.32 0 6.64 0 8 0 C8.33 3.96 8.66 7.92 9 12 C7.68 11.34 6.36 10.68 5 10 C5 9.34 5 8.68 5 8 C2.69 7.67 0.38 7.34 -2 7 C-1.34 4.69 -0.68 2.38 0 0 Z " fill="#7C2019" transform="translate(104,1)"/>
<path d="M0 0 C0.33 0.99 0.66 1.98 1 3 C3.10584438 3.80563638 3.10584438 3.80563638 5.5625 4.1875 C6.38878906 4.34605469 7.21507813 4.50460938 8.06640625 4.66796875 C8.70449219 4.77753906 9.34257813 4.88710938 10 5 C10 5.33 10 5.66 10 6 C6.04 6.66 2.08 7.32 -2 8 C-2.33 7.34 -2.66 6.68 -3 6 C-3.825 5.690625 -4.65 5.38125 -5.5 5.0625 C-6.325 4.711875 -7.15 4.36125 -8 4 C-8.33 3.01 -8.66 2.02 -9 1 C-5.94152152 0.45627049 -3.11227195 0 0 0 Z " fill="#A37030" transform="translate(96,46)"/>
<path d="M0 0 C1.32 0.66 2.64 1.32 4 2 C3.34 2 2.68 2 2 2 C2.33 2.556875 2.66 3.11375 3 3.6875 C4.1309601 6.30284522 4.15662974 8.1806646 4 11 C4.66 11.33 5.32 11.66 6 12 C6.33 11.34 6.66 10.68 7 10 C7 11.65 7 13.3 7 15 C4.69 14.67 2.38 14.34 0 14 C0.33 12.68 0.66 11.36 1 10 C0.01 10 -0.98 10 -2 10 C-1.855625 9.46375 -1.71125 8.9275 -1.5625 8.375 C-0.90546252 5.60084173 -0.44780052 2.81474612 0 0 Z " fill="#959282" transform="translate(95,25)"/>
<path d="M0 0 C2.52259061 1.97420135 2.9929808 2.96745642 3.6875 6.1875 C3.790625 7.115625 3.89375 8.04375 4 9 C3.01 9 2.02 9 1 9 C1 7.68 1 6.36 1 5 C0.4225 5.185625 -0.155 5.37125 -0.75 5.5625 C-3.20692525 6.04023546 -4.64397534 5.75729364 -7 5 C-7 5.66 -7 6.32 -7 7 C-7.99 7 -8.98 7 -10 7 C-10 5.68 -10 4.36 -10 3 C-6.7 2.67 -3.4 2.34 0 2 C0 1.34 0 0.68 0 0 Z " fill="#3B713F" transform="translate(102,38)"/>
<path d="M0 0 C0.66 0.33 1.32 0.66 2 1 C1.67 1.99 1.34 2.98 1 4 C1.99 4 2.98 4 4 4 C3.67 5.32 3.34 6.64 3 8 C4.98 8 6.96 8 9 8 C5.49159219 9.96470837 1.86030593 10.9276928 -2 12 C-2.99 12.495 -2.99 12.495 -4 13 C-4.1875 10.6875 -4.1875 10.6875 -4 8 C-3.02149805 6.97895449 -2.02019573 5.9793879 -1 5 C-0.27802838 2.39388923 -0.27802838 2.39388923 0 0 Z " fill="#E5E4E2" transform="translate(92,31)"/>
<path d="M0 0 C0.66 0 1.32 0 2 0 C1.88544319 1.91731918 1.75793742 3.8338675 1.625 5.75 C1.55539063 6.81734375 1.48578125 7.8846875 1.4140625 8.984375 C1.02127806 11.84503146 0.33675519 13.49897416 -1 16 C-1.16724737 19.16695956 -1.16724737 19.16695956 -1 22 C-1.66 22 -2.32 22 -3 22 C-3.125 15.375 -3.125 15.375 -2 12 C-3.32 12.33 -4.64 12.66 -6 13 C-6 12.34 -6 11.68 -6 11 C-5.34 10.67 -4.68 10.34 -4 10 C-2.86897474 7.65961814 -2.86897474 7.65961814 -1.875 4.9375 C-1.52179688 4.01839844 -1.16859375 3.09929688 -0.8046875 2.15234375 C-0.40636719 1.08693359 -0.40636719 1.08693359 0 0 Z " fill="#B7B5A3" transform="translate(90,23)"/>
<path d="M0 0 C-0.185625 0.680625 -0.37125 1.36125 -0.5625 2.0625 C-1.08523943 5.57232191 -0.61378577 8.52188063 0 12 C-1.32 11.67 -2.64 11.34 -4 11 C-4.38133299 9.0085944 -4.71325582 7.00720923 -5 5 C-4.67 4.67 -4.34 4.34 -4 4 C-4.66 3.67 -5.32 3.34 -6 3 C-6 2.01 -6 1.02 -6 0 C-3.50907189 -1.24546405 -2.58919267 -0.7767578 0 0 Z " fill="#FAFAF9" transform="translate(129,21)"/>
<path d="M0 0 C4.62 0 9.24 0 14 0 C10 4 10 4 8.125 5 C4.67054501 5 2.65067234 3.04824681 0 1 C0 0.67 0 0.34 0 0 Z " fill="#1C1A14" transform="translate(103,22)"/>
<path d="M0 0 C0.33 0 0.66 0 1 0 C1.33 3.3 1.66 6.6 2 10 C0 11 0 11 -2.5 10.375 C-5 9 -5 9 -6.3125 6.375 C-6.539375 5.59125 -6.76625 4.8075 -7 4 C-6.01 3.67 -5.02 3.34 -4 3 C-3.01 3.66 -2.02 4.32 -1 5 C-0.67 3.35 -0.34 1.7 0 0 Z " fill="#467844" transform="translate(131,38)"/>
<path d="M0 0 C2.59156247 1.17038305 2.9351152 2.24774486 3.9375 4.875 C3.9140625 7.234375 3.9140625 7.234375 3.5625 9.625 C3.39621094 10.82382812 3.39621094 10.82382812 3.2265625 12.046875 C3.08347656 12.95179687 3.08347656 12.95179687 2.9375 13.875 C1.9475 13.545 0.9575 13.215 -0.0625 12.875 C-0.02125 12.09125 0.02 11.3075 0.0625 10.5 C0.22478734 7.71383881 0.22478734 7.71383881 -2.0625 5.875 C-1.7325 4.885 -1.4025 3.895 -1.0625 2.875 C-2.3825 2.545 -3.7025 2.215 -5.0625 1.875 C-2.0625 -0.125 -2.0625 -0.125 0 0 Z " fill="#E1E1DF" transform="translate(98.0625,23.125)"/>
<path d="M0 0 C2.1385485 2.1385485 2.42655063 3.13275314 3 6 C1.68 5.67 0.36 5.34 -1 5 C-1.33 5.66 -1.66 6.32 -2 7 C-3.65 6.67 -5.3 6.34 -7 6 C-7 4.35 -7 2.7 -7 1 C-5.515 1.99 -5.515 1.99 -4 3 C-3.67 2.34 -3.34 1.68 -3 1 C-2.01 0.67 -1.02 0.34 0 0 Z " fill="#9F9D98" transform="translate(138,29)"/>
<path d="M0 0 C0 0.66 0 1.32 0 2 C-0.99 2.66 -1.98 3.32 -3 4 C-2.34 4.33 -1.68 4.66 -1 5 C-2.8125 6.5625 -2.8125 6.5625 -5 8 C-5.99 7.67 -6.98 7.34 -8 7 C-8 4 -8 4 -7 1 C-4.52260646 0.09162237 -2.66420516 0 0 0 Z " fill="#D6D5D3" transform="translate(131,13)"/>
<path d="M0 0 C0 1.98 0 3.96 0 6 C-4.67692308 4.52307692 -4.67692308 4.52307692 -6.3125 1.875 C-6.539375 1.25625 -6.76625 0.6375 -7 0 C-4.3333581 -1.33332095 -2.83319697 -0.67102033 0 0 Z " fill="#6E1B16" transform="translate(121,10)"/>
<path d="M0 0 C2.97 0.495 2.97 0.495 6 1 C5.3125 3.4375 5.3125 3.4375 4 6 C1.375 6.8125 1.375 6.8125 -1 7 C-0.67 4.69 -0.34 2.38 0 0 Z " fill="#752420" transform="translate(100,9)"/>
<path d="M0 0 C0.66 0 1.32 0 2 0 C1.67 1.65 1.34 3.3 1 5 C2.98 4.67 4.96 4.34 7 4 C8.4606285 6.64738916 9 7.89448334 9 11 C8.34 11 7.68 11 7 11 C7 10.01 7 9.02 7 8 C4.36 7.34 1.72 6.68 -1 6 C-0.67 4.02 -0.34 2.04 0 0 Z " fill="#563028" transform="translate(101,3)"/>
<path d="M0 0 C1.9375 0.75 1.9375 0.75 4 2 C4.75 4.125 4.75 4.125 5 6 C-2.42857143 6.28571429 -2.42857143 6.28571429 -6 4 C-4.02 4 -2.04 4 0 4 C0 2.68 0 1.36 0 0 Z " fill="#F5F5F5" transform="translate(124,35)"/>
<path d="M0 0 C0.33 0.66 0.66 1.32 1 2 C1.66 2 2.32 2 3 2 C4.99785435 6.1205746 5.17835515 9.45194365 5 14 C3.68 12.68 2.36 11.36 1 10 C1.66 10 2.32 10 3 10 C2.505 8.906875 2.01 7.81375 1.5 6.6875 C0 3 0 3 0 0 Z " fill="#D6D5D0" transform="translate(126,31)"/>
<path d="M0 0 C1.32 0 2.64 0 4 0 C4 0.66 4 1.32 4 2 C4.66 2.33 5.32 2.66 6 3 C6.33 2.34 6.66 1.68 7 1 C7 2.65 7 4.3 7 6 C4.69 5.67 2.38 5.34 0 5 C0 3.35 0 1.7 0 0 Z " fill="#A8A596" transform="translate(95,34)"/>
<path d="M0 0 C1.98 0 3.96 0 6 0 C6.66 1.65 7.32 3.3 8 5 C7.01 5.66 6.02 6.32 5 7 C4.67 5.68 4.34 4.36 4 3 C2.35 3 0.7 3 -1 3 C-0.67 2.01 -0.34 1.02 0 0 Z " fill="#737169" transform="translate(127,11)"/>
<path d="M0 0 C0.66 0.33 1.32 0.66 2 1 C2 1.66 2 2.32 2 3 C1.34 3 0.68 3 0 3 C0 5.31 0 7.62 0 10 C-0.99 10 -1.98 10 -3 10 C-2.25 3.375 -2.25 3.375 0 0 Z " fill="#E4E4E3" transform="translate(121,27)"/>
<path d="M0 0 C1.32 0.33 2.64 0.66 4 1 C4 1.99 4 2.98 4 4 C3.01 4 2.02 4 1 4 C0.34 5.32 -0.32 6.64 -1 8 C-2.2077558 4.37673261 -1.54311128 3.35853631 0 0 Z " fill="#D3D2D1" transform="translate(134,26)"/>
<path d="M0 0 C0.66 0 1.32 0 2 0 C3.76462683 3.08809695 4 4.23312136 4 8 C2.68 8 1.36 8 0 8 C-0.38063221 5.6739143 -0.71269945 3.33944736 -1 1 C-0.67 0.67 -0.34 0.34 0 0 Z " fill="#3B6C3A" transform="translate(119,41)"/>
<path d="M0 0 C1.32 0.33 2.64 0.66 4 1 C3.34 1 2.68 1 2 1 C2 1.66 2 2.32 2 3 C2.66 3.33 3.32 3.66 4 4 C3 5 3 5 -0.5625 5.0625 C-1.696875 5.041875 -2.83125 5.02125 -4 5 C-3.67 4.34 -3.34 3.68 -3 3 C-2.34 3 -1.68 3 -1 3 C-0.67 2.01 -0.34 1.02 0 0 Z " fill="#3E8B52" transform="translate(90,42)"/>
<path d="M0 0 C2.97 0.33 5.94 0.66 9 1 C8.67 1.66 8.34 2.32 8 3 C8.33 3.99 8.66 4.98 9 6 C7.68 5.67 6.36 5.34 5 5 C4.67 3.68 4.34 2.36 4 1 C3.01 1.33 2.02 1.66 1 2 C0.67 1.34 0.34 0.68 0 0 Z " fill="#198B3C" transform="translate(117,40)"/>
<path d="M0 0 C4.455 0.99 4.455 0.99 9 2 C8.67 3.32 8.34 4.64 8 6 C5.03 5.01 2.06 4.02 -1 3 C-0.67 2.01 -0.34 1.02 0 0 Z " fill="#84957E" transform="translate(114,19)"/>
<path d="M0 0 C0 0.66 0 1.32 0 2 C-1.32 2 -2.64 2 -4 2 C-4 2.99 -4 3.98 -4 5 C-5.9375 4.6875 -5.9375 4.6875 -8 4 C-8.33 3.01 -8.66 2.02 -9 1 C-5.94152152 0.45627049 -3.11227195 0 0 0 Z " fill="#BC9027" transform="translate(96,46)"/>
<path d="M0 0 C1.98 0.495 1.98 0.495 4 1 C4 1.99 4 2.98 4 4 C3.34 4 2.68 4 2 4 C1.67 4.66 1.34 5.32 1 6 C1.99 5.67 2.98 5.34 4 5 C4 5.66 4 6.32 4 7 C2.35 7.33 0.7 7.66 -1 8 C-0.67 5.36 -0.34 2.72 0 0 Z " fill="#8D312F" transform="translate(114,1)"/>
<path d="M0 0 C0.66 0 1.32 0 2 0 C1.67 1.32 1.34 2.64 1 4 C-2.63 3.34 -6.26 2.68 -10 2 C-10 1.67 -10 1.34 -10 1 C-6.7 1.33 -3.4 1.66 0 2 C0 1.34 0 0.68 0 0 Z " fill="#B5974C" transform="translate(124,50)"/>
<path d="M0 0 C0.78375 0.04125 1.5675 0.0825 2.375 0.125 C1.735625 0.3725 1.09625 0.62 0.4375 0.875 C-1.81241541 1.94062433 -1.81241541 1.94062433 -2.375 4.25 C-2.4575 4.86875 -2.54 5.4875 -2.625 6.125 C-2.955 5.795 -3.285 5.465 -3.625 5.125 C-4.285 5.785 -4.945 6.445 -5.625 7.125 C-4.53409091 0.21590909 -4.53409091 0.21590909 0 0 Z " fill="#737066" transform="translate(89.625,10.875)"/>
<path d="M0 0 C0.66 0 1.32 0 2 0 C2 2.31 2 4.62 2 7 C0.68 7 -0.64 7 -2 7 C-1.34 4.69 -0.68 2.38 0 0 Z " fill="#7B2823" transform="translate(104,1)"/>
<path d="M0 0 C0.99 0 1.98 0 3 0 C3 1.32 3 2.64 3 4 C0.03 4 -2.94 4 -6 4 C-4.68 3.34 -3.36 2.68 -2 2 C-1.34 1.34 -0.68 0.68 0 0 Z " fill="#366437" transform="translate(113,43)"/>
<path d="M0 0 C2 2 2 2 2 6 C1.01 6 0.02 6 -1 6 C-1 4.68 -1 3.36 -1 2 C-2.32 2.33 -3.64 2.66 -5 3 C-5 2.34 -5 1.68 -5 1 C-2.625 0.375 -2.625 0.375 0 0 Z " fill="#4D5834" transform="translate(104,41)"/>
<path d="M0 0 C0.99 0.33 1.98 0.66 3 1 C3 1.99 3 2.98 3 4 C1.68 4.33 0.36 4.66 -1 5 C-1 5.66 -1 6.32 -1 7 C-1.99 6.67 -2.98 6.34 -4 6 C-3.34 5.67 -2.68 5.34 -2 5 C-2 4.34 -2 3.68 -2 3 C-1.34 3 -0.68 3 0 3 C0 2.01 0 1.02 0 0 Z " fill="#665E4B" transform="translate(108,14)"/>
<path d="M0 0 C0.33 0 0.66 0 1 0 C1.33 3.3 1.66 6.6 2 10 C1.01 10.495 1.01 10.495 0 11 C-0.99 10.34 -1.98 9.68 -3 9 C-2.67 8.34 -2.34 7.68 -2 7 C-1.34 7 -0.68 7 0 7 C0 4.69 0 2.38 0 0 Z " fill="#778C62" transform="translate(131,38)"/>
<path d="M0 0 C0 1.32 0 2.64 0 4 C0.99 4.33 1.98 4.66 3 5 C0.03 4.67 -2.94 4.34 -6 4 C-2.25 0 -2.25 0 0 0 Z " fill="#22AC4C" transform="translate(103,43)"/>
<path d="M0 0 C0.66 0.33 1.32 0.66 2 1 C1.67 1.66 1.34 2.32 1 3 C1.66 3.33 2.32 3.66 3 4 C2.01 5.32 1.02 6.64 0 8 C-0.99 7.67 -1.98 7.34 -3 7 C-2.01 4.69 -1.02 2.38 0 0 Z " fill="#8F8D8A" transform="translate(81,27)"/>
<path d="M0 0 C1.32 0 2.64 0 4 0 C4.33 1.32 4.66 2.64 5 4 C2.03 3.505 2.03 3.505 -1 3 C-0.67 2.01 -0.34 1.02 0 0 Z " fill="#CECECB" transform="translate(90,12)"/>
<path d="M0 0 C-0.33 0.99 -0.66 1.98 -1 3 C-2.32 2.34 -3.64 1.68 -5 1 C-5.33 1.66 -5.66 2.32 -6 3 C-6.33 2.01 -6.66 1.02 -7 0 C-4.3333581 -1.33332095 -2.83319697 -0.67102033 0 0 Z " fill="#7F3530" transform="translate(121,10)"/>
</svg>
