<?xml version="1.0" encoding="UTF-8"?>
<svg version="1.1" xmlns="http://www.w3.org/2000/svg" width="200" height="200">
<path d="M0 0 C-1.60205018 4.42671762 -4.98437412 6.84446104 -8.5 9.75 C-9.09425781 10.25660156 -9.68851562 10.76320313 -10.30078125 11.28515625 C-14.73656503 15 -14.73656503 15 -17 15 C-14.7852249 20.07598602 -12.56131172 25.14782893 -10.32885742 30.21606445 C-9.57080018 31.94054334 -8.81524566 33.66612467 -8.06225586 35.39282227 C-6.97907132 37.87550692 -5.8869286 40.35407914 -4.79296875 42.83203125 C-4.29122383 43.98998955 -4.29122383 43.98998955 -3.77934265 45.17134094 C-3.29918449 46.25212166 -3.29918449 46.25212166 -2.80932617 47.35473633 C-2.53174973 47.98761063 -2.25417328 48.62048492 -1.96818542 49.27253723 C0.30957894 53.33658636 3.0967463 54.57657038 7.375 56.125 C25.47173639 63.44674721 39.80046313 77.84691096 47.6015625 95.65625 C48.87345452 99.07771392 49.98615666 102.49414678 51 106 C51.24492187 106.80308594 51.48984375 107.60617188 51.7421875 108.43359375 C56.07497225 125.5569965 53.06565581 145.53244559 45 161 C33.79181124 179.66551831 18.08247898 192.67769178 -2.99926758 198.55761719 C-22.38017028 203.39260837 -43.27363318 200.3021939 -60.39453125 190.2578125 C-77.94407544 179.46463036 -89.60549771 164.65247749 -94.875 144.5625 C-95.27624165 142.71383449 -95.65455073 140.85989888 -96 139 C-96.13019531 138.30777344 -96.26039062 137.61554688 -96.39453125 136.90234375 C-96.69840926 134.92916253 -96.87731188 132.99275248 -97 131 C-97.05285156 130.1440625 -97.10570312 129.288125 -97.16015625 128.40625 C-97.43946286 119.37128819 -96.57754458 108.75190317 -92.8359375 100.40234375 C-91.07462184 95.34061884 -93.39135726 90.72736654 -95.55274963 86.13638306 C-95.89756882 85.42364227 -96.242388 84.71090149 -96.59765625 83.9765625 C-96.95137802 83.23038666 -97.30509979 82.48421082 -97.66954041 81.71542358 C-98.79352161 79.34853843 -99.92781961 76.98677166 -101.0625 74.625 C-101.82946418 73.01465048 -102.59574763 71.40397656 -103.36132812 69.79296875 C-105.2330267 65.85818048 -107.11398956 61.92794714 -109 58 C-114.445 58.495 -114.445 58.495 -120 59 C-119.93091287 63.18148877 -119.84284758 67.36202754 -119.73754883 71.54272461 C-119.70439443 72.96351202 -119.67633308 74.38442813 -119.65356445 75.80541992 C-119.61984153 77.8539082 -119.56752255 79.9012272 -119.51171875 81.94921875 C-119.48553467 83.17987061 -119.45935059 84.41052246 -119.43237305 85.6784668 C-118.9701564 89.2292615 -117.88742743 91.02140856 -116 94 C-116.3125 97.625 -116.3125 97.625 -117 101 C-117 103.96335165 -116.64533932 105.1666533 -115.46875 107.79296875 C-115.15292969 108.50517578 -114.83710937 109.21738281 -114.51171875 109.95117188 C-114.17785156 110.68916016 -113.84398438 111.42714844 -113.5 112.1875 C-113.16613281 112.93708984 -112.83226563 113.68667969 -112.48828125 114.45898438 C-111.66379085 116.30819856 -110.83253959 118.15439566 -110 120 C-111 121 -111 121 -113.13305664 121.11352539 C-114.04949951 121.10828857 -114.96594238 121.10305176 -115.91015625 121.09765625 C-116.89951172 121.09443359 -117.88886719 121.09121094 -118.90820312 121.08789062 C-119.94912109 121.07951172 -120.99003906 121.07113281 -122.0625 121.0625 C-123.10728516 121.05798828 -124.15207031 121.05347656 -125.22851562 121.04882812 C-127.8190666 121.03699913 -130.40950559 121.02051689 -133 121 C-131.38938316 116.05777727 -129.70125342 111.19488718 -127.75 106.375 C-125.98268996 101.6378118 -125.96361043 98.871031 -127 94 C-126.01 93.01 -126.01 93.01 -125 92 C-124.81528999 88.78890241 -124.81528999 88.78890241 -125.0234375 85.0234375 C-125.06097641 83.99556625 -125.06097641 83.99556625 -125.09927368 82.94692993 C-125.18152309 80.7557869 -125.27809048 78.56553889 -125.375 76.375 C-125.43323472 74.8906617 -125.49053811 73.40628654 -125.546875 71.921875 C-125.68710758 68.28076026 -125.84018751 64.6403138 -126 61 C-127.65 61 -129.3 61 -131 61 C-131 58 -131 58 -129.296875 56.265625 C-128.45640625 55.60046875 -127.6159375 54.9353125 -126.75 54.25 C-125.75097656 53.45851562 -124.75195312 52.66703125 -123.72265625 51.8515625 C-118.37784867 47.73194699 -112.96784834 43.69761392 -107.55761719 39.66455078 C-103.07381435 36.31974466 -98.61212047 32.9554421 -94.22338867 29.48657227 C-93.07879485 28.58227991 -91.92922018 27.68425492 -90.7746582 26.79272461 C-88.2111799 24.80605698 -85.78949798 22.79565112 -83.4609375 20.53515625 C-74.60365172 12.4940252 -63.92110493 11.26466486 -52.4753418 9.19447327 C-46.79615613 8.16593572 -41.14421412 7.02341369 -35.4921875 5.85546875 C-31.86997526 5.11108376 -28.24749995 4.36798347 -24.625 3.625 C-23.7424353 3.44347382 -22.85987061 3.26194763 -21.95056152 3.07492065 C-19.41876904 2.55676978 -16.88546048 2.04680372 -14.3515625 1.5390625 C-13.5964035 1.38314133 -12.84124451 1.22722015 -12.0632019 1.0665741 C-7.98026948 0.25659789 -4.16158854 -0.16154344 0 0 Z " fill="#BBDCFD" transform="translate(140,0)"/>
<path d="M0 0 C-1.60205018 4.42671762 -4.98437412 6.84446104 -8.5 9.75 C-9.09425781 10.25660156 -9.68851562 10.76320313 -10.30078125 11.28515625 C-14.73656503 15 -14.73656503 15 -17 15 C-14.7828674 20.05663157 -12.55898683 25.11021972 -10.32885742 30.16113281 C-9.57146958 31.87906664 -8.81591754 33.59781105 -8.06225586 35.31738281 C-6.97733885 37.79188041 -5.88580807 40.26336783 -4.79296875 42.734375 C-4.29122383 43.88459137 -4.29122383 43.88459137 -3.77934265 45.05804443 C-2.16305958 48.69573012 -0.60551874 51.93966135 2 55 C0.96875 55.70125 -0.0625 56.4025 -1.125 57.125 C-6.16650986 60.88370575 -10.44272743 65.33678604 -14.83959961 69.80834961 C-18.57592573 73.60127907 -22.37003842 77.24001011 -26.44921875 80.66796875 C-28.04796055 82.04119534 -29.52812851 83.49255458 -31 85 C-29.73542969 85.52400391 -29.73542969 85.52400391 -28.4453125 86.05859375 C-27.34960938 86.51363281 -26.25390625 86.96867187 -25.125 87.4375 C-24.03445312 87.88996094 -22.94390625 88.34242187 -21.8203125 88.80859375 C-20.19441376 89.49543463 -18.57868226 90.21065887 -17 91 C-17 92.65 -17 94.3 -17 96 C-24.08532499 100.82442983 -30.49668236 101.60146842 -38.84130859 101.63452148 C-43.02677746 101.53175633 -43.02677746 101.53175633 -46.64868164 103.30419922 C-48.81871695 106.0274269 -49.81622575 109.26311728 -51 112.5 C-54.02760582 120.77860967 -54.02760582 120.77860967 -57 123 C-60.78857199 124.6101431 -64.52292286 125.24976262 -68.5625 125.875 C-73.04502258 126.65456914 -75.84279088 127.53725451 -79 131 C-82.05201151 135.94861866 -81.69264011 141.38672913 -81 147 C-77.87536968 155.39744399 -70.24131335 160.49155563 -62.796875 164.82421875 C-60.89939529 166.06583048 -59.4432509 167.24843854 -58 169 C-58.15740316 176.08314241 -62.76223648 180.73166925 -67 186 C-82.96638507 174.66686655 -92.44929436 158.11699917 -96 139 C-96.13019531 138.30777344 -96.26039062 137.61554688 -96.39453125 136.90234375 C-96.69840926 134.92916253 -96.87731188 132.99275248 -97 131 C-97.05285156 130.1440625 -97.10570312 129.288125 -97.16015625 128.40625 C-97.43946286 119.37128819 -96.57754458 108.75190317 -92.8359375 100.40234375 C-91.07462184 95.34061884 -93.39135726 90.72736654 -95.55274963 86.13638306 C-95.89756882 85.42364227 -96.242388 84.71090149 -96.59765625 83.9765625 C-96.95137802 83.23038666 -97.30509979 82.48421082 -97.66954041 81.71542358 C-98.79352161 79.34853843 -99.92781961 76.98677166 -101.0625 74.625 C-101.82946418 73.01465048 -102.59574763 71.40397656 -103.36132812 69.79296875 C-105.2330267 65.85818048 -107.11398956 61.92794714 -109 58 C-114.445 58.495 -114.445 58.495 -120 59 C-119.93091287 63.18148877 -119.84284758 67.36202754 -119.73754883 71.54272461 C-119.70439443 72.96351202 -119.67633308 74.38442813 -119.65356445 75.80541992 C-119.61984153 77.8539082 -119.56752255 79.9012272 -119.51171875 81.94921875 C-119.48553467 83.17987061 -119.45935059 84.41052246 -119.43237305 85.6784668 C-118.9701564 89.2292615 -117.88742743 91.02140856 -116 94 C-116.3125 97.625 -116.3125 97.625 -117 101 C-117 103.96335165 -116.64533932 105.1666533 -115.46875 107.79296875 C-115.15292969 108.50517578 -114.83710937 109.21738281 -114.51171875 109.95117188 C-114.17785156 110.68916016 -113.84398438 111.42714844 -113.5 112.1875 C-113.16613281 112.93708984 -112.83226563 113.68667969 -112.48828125 114.45898438 C-111.66379085 116.30819856 -110.83253959 118.15439566 -110 120 C-111 121 -111 121 -113.13305664 121.11352539 C-114.04949951 121.10828857 -114.96594238 121.10305176 -115.91015625 121.09765625 C-116.89951172 121.09443359 -117.88886719 121.09121094 -118.90820312 121.08789062 C-119.94912109 121.07951172 -120.99003906 121.07113281 -122.0625 121.0625 C-123.10728516 121.05798828 -124.15207031 121.05347656 -125.22851562 121.04882812 C-127.8190666 121.03699913 -130.40950559 121.02051689 -133 121 C-131.38938316 116.05777727 -129.70125342 111.19488718 -127.75 106.375 C-125.98268996 101.6378118 -125.96361043 98.871031 -127 94 C-126.01 93.01 -126.01 93.01 -125 92 C-124.81528999 88.78890241 -124.81528999 88.78890241 -125.0234375 85.0234375 C-125.06097641 83.99556625 -125.06097641 83.99556625 -125.09927368 82.94692993 C-125.18152309 80.7557869 -125.27809048 78.56553889 -125.375 76.375 C-125.43323472 74.8906617 -125.49053811 73.40628654 -125.546875 71.921875 C-125.68710758 68.28076026 -125.84018751 64.6403138 -126 61 C-127.65 61 -129.3 61 -131 61 C-131 58 -131 58 -129.296875 56.265625 C-128.45640625 55.60046875 -127.6159375 54.9353125 -126.75 54.25 C-125.75097656 53.45851562 -124.75195312 52.66703125 -123.72265625 51.8515625 C-118.37784867 47.73194699 -112.96784834 43.69761392 -107.55761719 39.66455078 C-103.07381435 36.31974466 -98.61212047 32.9554421 -94.22338867 29.48657227 C-93.07879485 28.58227991 -91.92922018 27.68425492 -90.7746582 26.79272461 C-88.2111799 24.80605698 -85.78949798 22.79565112 -83.4609375 20.53515625 C-74.60365172 12.4940252 -63.92110493 11.26466486 -52.4753418 9.19447327 C-46.79615613 8.16593572 -41.14421412 7.02341369 -35.4921875 5.85546875 C-31.86997526 5.11108376 -28.24749995 4.36798347 -24.625 3.625 C-23.7424353 3.44347382 -22.85987061 3.26194763 -21.95056152 3.07492065 C-19.41876904 2.55676978 -16.88546048 2.04680372 -14.3515625 1.5390625 C-13.5964035 1.38314133 -12.84124451 1.22722015 -12.0632019 1.0665741 C-7.98026948 0.25659789 -4.16158854 -0.16154344 0 0 Z " fill="#075AFD" transform="translate(140,0)"/>
<path d="M0 0 C-1.58270796 4.30905007 -4.88683078 6.7810482 -8.3125 9.625 C-8.88162109 10.11484375 -9.45074219 10.6046875 -10.03710938 11.109375 C-12.48669836 13.16804221 -14.52263818 14.81098251 -17.515625 15.99609375 C-21.07141787 17.43294716 -23.61943888 19.90839945 -26.4375 22.4375 C-31.83161401 27.17693271 -37.33260975 31.71045027 -43.02905273 36.08178711 C-43.83064819 36.70065796 -43.83064819 36.70065796 -44.6484375 37.33203125 C-45.46501831 37.95718628 -45.46501831 37.95718628 -46.2980957 38.5949707 C-48.06452017 40.00789609 -48.06452017 40.00789609 -49.78588867 41.78588867 C-55.24389731 47.14319862 -60.10985365 48.50670466 -67.5625 49.6875 C-68.64499023 49.88045654 -69.72748047 50.07341309 -70.84277344 50.2722168 C-73.09579024 50.67066396 -75.35091352 51.05736922 -77.60791016 51.43261719 C-80.93632116 51.98934867 -84.25512999 52.58567377 -87.57421875 53.1953125 C-95.47397225 54.6294593 -95.47397225 54.6294593 -99.359375 55.30078125 C-100.13764648 55.43653564 -100.91591797 55.57229004 -101.71777344 55.7121582 C-104.16710349 56.02107563 -106.53383961 56.04876742 -109 56 C-109 56.66 -109 57.32 -109 58 C-114.445 58.495 -114.445 58.495 -120 59 C-119.93091287 63.18148877 -119.84284758 67.36202754 -119.73754883 71.54272461 C-119.70439443 72.96351202 -119.67633308 74.38442813 -119.65356445 75.80541992 C-119.61984153 77.8539082 -119.56752255 79.9012272 -119.51171875 81.94921875 C-119.48553467 83.17987061 -119.45935059 84.41052246 -119.43237305 85.6784668 C-118.9701564 89.2292615 -117.88742743 91.02140856 -116 94 C-116.3125 97.625 -116.3125 97.625 -117 101 C-117 103.96335165 -116.64533932 105.1666533 -115.46875 107.79296875 C-115.15292969 108.50517578 -114.83710937 109.21738281 -114.51171875 109.95117188 C-114.17785156 110.68916016 -113.84398438 111.42714844 -113.5 112.1875 C-113.16613281 112.93708984 -112.83226563 113.68667969 -112.48828125 114.45898438 C-111.66379085 116.30819856 -110.83253959 118.15439566 -110 120 C-111 121 -111 121 -113.13305664 121.11352539 C-114.04949951 121.10828857 -114.96594238 121.10305176 -115.91015625 121.09765625 C-116.89951172 121.09443359 -117.88886719 121.09121094 -118.90820312 121.08789062 C-119.94912109 121.07951172 -120.99003906 121.07113281 -122.0625 121.0625 C-123.10728516 121.05798828 -124.15207031 121.05347656 -125.22851562 121.04882812 C-127.8190666 121.03699913 -130.40950559 121.02051689 -133 121 C-131.38938316 116.05777727 -129.70125342 111.19488718 -127.75 106.375 C-125.98268996 101.6378118 -125.96361043 98.871031 -127 94 C-126.01 93.01 -126.01 93.01 -125 92 C-124.81528999 88.78890241 -124.81528999 88.78890241 -125.0234375 85.0234375 C-125.06097641 83.99556625 -125.06097641 83.99556625 -125.09927368 82.94692993 C-125.18152309 80.7557869 -125.27809048 78.56553889 -125.375 76.375 C-125.43323472 74.8906617 -125.49053811 73.40628654 -125.546875 71.921875 C-125.68710758 68.28076026 -125.84018751 64.6403138 -126 61 C-127.65 61 -129.3 61 -131 61 C-131 58 -131 58 -129.296875 56.265625 C-128.45640625 55.60046875 -127.6159375 54.9353125 -126.75 54.25 C-125.75097656 53.45851562 -124.75195312 52.66703125 -123.72265625 51.8515625 C-118.37784867 47.73194699 -112.96784834 43.69761392 -107.55761719 39.66455078 C-103.07381435 36.31974466 -98.61212047 32.9554421 -94.22338867 29.48657227 C-93.07879485 28.58227991 -91.92922018 27.68425492 -90.7746582 26.79272461 C-88.2111799 24.80605698 -85.78949798 22.79565112 -83.4609375 20.53515625 C-74.60365172 12.4940252 -63.92110493 11.26466486 -52.4753418 9.19447327 C-46.79615613 8.16593572 -41.14421412 7.02341369 -35.4921875 5.85546875 C-31.86997526 5.11108376 -28.24749995 4.36798347 -24.625 3.625 C-23.7424353 3.44347382 -22.85987061 3.26194763 -21.95056152 3.07492065 C-19.41876904 2.55676978 -16.88546048 2.04680372 -14.3515625 1.5390625 C-13.5964035 1.38314133 -12.84124451 1.22722015 -12.0632019 1.0665741 C-7.98026948 0.25659789 -4.16158854 -0.16154344 0 0 Z " fill="#01226E" transform="translate(140,0)"/>
<path d="M0 0 C2.51495832 0.8498322 5.03245953 1.69136504 7.55078125 2.53125 C8.65719971 2.90830078 9.76361816 3.28535156 10.90356445 3.67382812 C13.68284824 4.64225025 13.68284824 4.64225025 16.6875 4.5 C15.98509483 22.02500898 9.29177751 37.45626059 -2.3125 50.5 C-2.90546875 51.18707031 -3.4984375 51.87414062 -4.109375 52.58203125 C-15.10381769 64.49267749 -30.49995718 71.73907983 -46.3125 74.5 C-47.6325 74.5 -48.9525 74.5 -50.3125 74.5 C-52.63565822 66.94973578 -54.16815606 58.59790713 -50.8125 51.1875 C-45.86468057 45.86859411 -40.78473989 41.70905796 -34.5625 37.9375 C-29.01745108 34.51984519 -26.39412428 31.74487283 -24.3125 25.5 C-23.53411613 18.66043026 -24.75992988 13.33711796 -27.4375 7.04296875 C-28.38015472 4.30337846 -28.66079979 2.37347328 -28.3125 -0.5 C-19.76250257 -8.40874762 -9.60235505 -3.2903432 0 0 Z " fill="#2EBCA0" transform="translate(176.3125,125.5)"/>
<path d="M0 0 C4.64312762 1.26630753 9.01261453 3.05736092 13.4375 4.9375 C13.4375 6.5875 13.4375 8.2375 13.4375 9.9375 C6.35217501 14.76192983 -0.05918236 15.53896842 -8.40380859 15.57202148 C-12.58927746 15.46925633 -12.58927746 15.46925633 -16.21118164 17.24169922 C-18.38121695 19.9649269 -19.37872575 23.20061728 -20.5625 26.4375 C-23.59010582 34.71610967 -23.59010582 34.71610967 -26.5625 36.9375 C-30.35107199 38.5476431 -34.08542286 39.18726262 -38.125 39.8125 C-42.60752258 40.59206914 -45.40529088 41.47475451 -48.5625 44.9375 C-51.61451151 49.88611866 -51.25514011 55.32422913 -50.5625 60.9375 C-47.43786968 69.33494399 -39.80381335 74.42905563 -32.359375 78.76171875 C-30.46189529 80.00333048 -29.0057509 81.18593854 -27.5625 82.9375 C-27.71990316 90.02064241 -32.32473648 94.66916925 -36.5625 99.9375 C-52.52888507 88.60436655 -62.01179436 72.05449917 -65.5625 52.9375 C-65.69269531 52.24527344 -65.82289062 51.55304688 -65.95703125 50.83984375 C-66.26090926 48.86666253 -66.43981188 46.93025248 -66.5625 44.9375 C-66.64177734 43.65359375 -66.64177734 43.65359375 -66.72265625 42.34375 C-66.91043052 36.26966053 -66.3293311 30.52216536 -65.25 24.5625 C-65.07355957 23.56379883 -65.07355957 23.56379883 -64.89355469 22.54492188 C-64.02409764 18.11980799 -62.85421429 13.22921429 -59.5625 9.9375 C-58.05839902 9.7083388 -56.54499211 9.53977376 -55.03027344 9.39672852 C-53.58306915 9.25636925 -53.58306915 9.25636925 -52.10662842 9.11317444 C-51.05565979 9.01524094 -50.00469116 8.91730743 -48.921875 8.81640625 C-46.71482864 8.60106624 -44.50779788 8.38556638 -42.30078125 8.16992188 C-38.80737506 7.83383803 -35.31376867 7.50011999 -31.81982422 7.16967773 C-28.45735328 6.84999782 -25.0958665 6.52120342 -21.734375 6.19140625 C-20.6915033 6.09549698 -19.64863159 5.99958771 -18.57415771 5.90077209 C-17.59674622 5.80404709 -16.61933472 5.70732208 -15.61230469 5.60766602 C-14.75594421 5.52629898 -13.89958374 5.44493195 -13.01727295 5.36109924 C-9.5144278 4.75664311 -6.47445195 4.00805229 -4.125 1.25 C-2.5625 -0.0625 -2.5625 -0.0625 0 0 Z " fill="#2EBCA0" transform="translate(109.5625,86.0625)"/>
<path d="M0 0 C5.34188905 0.61637181 8.61000758 3.45102798 12 7.4375 C16.53021779 13.351951 16.53021779 13.351951 16.5 17.9375 C16.50515625 18.72253906 16.5103125 19.50757812 16.515625 20.31640625 C16.25 22.375 16.25 22.375 14.25 24.375 C8.80551628 24.16559678 5.39771431 22.89154039 1.25 19.375 C-2.92255446 14.40392434 -5.28337025 8.96690919 -4.75 2.375 C-2.75 0.375 -2.75 0.375 0 0 Z " fill="#FDFEFF" transform="translate(163.75,75.625)"/>
<path d="M0 0 C2.64 0 5.28 0 8 0 C10.64 5.94 13.28 11.88 16 18 C15 19 15 19 12.86694336 19.11352539 C11.95050049 19.10828857 11.03405762 19.10305176 10.08984375 19.09765625 C9.10048828 19.09443359 8.11113281 19.09121094 7.09179688 19.08789062 C6.05087891 19.07951172 5.00996094 19.07113281 3.9375 19.0625 C2.89271484 19.05798828 1.84792969 19.05347656 0.77148438 19.04882812 C-1.8190666 19.03699913 -4.40950559 19.02051689 -7 19 C-5.39599265 14.09064249 -3.76645281 9.22131551 -1.8125 4.4375 C-1.46832031 3.59058594 -1.12414062 2.74367188 -0.76953125 1.87109375 C-0.51558594 1.25363281 -0.26164063 0.63617188 0 0 Z " fill="#DAC452" transform="translate(14,102)"/>
<path d="M0 0 C1.875 1.0625 1.875 1.0625 3 3 C2.8125 6.625 2.8125 6.625 2 10 C-0.78863007 11.39431504 -2.92078868 11.25660094 -6 11 C-8.15502531 7.76746204 -8.46856135 6.74849077 -8 3 C-5.85607122 -0.27231235 -3.76836426 -0.56525464 0 0 Z " fill="#064DE4" transform="translate(21,91)"/>
</svg>
